<svg height="480pt" viewBox="-18 0 480 480.46456" width="480pt" xmlns="http://www.w3.org/2000/svg">	<defs>
<linearGradient id="PSgrad_0" x1="98.769%" x2="0%" y1="15.643%" y2="0%">
  <stop offset="0%" stop-color="rgb(180,55,115)" stop-opacity="1" />
  <stop offset="100%" stop-color="rgb(209,73,74)" stop-opacity="1" />
</linearGradient>

</defs><path fill="url(#PSgrad_0)" d="m235.738281 0c-19.128906.0234375-34.632812 15.519531-34.664062 34.648438v53.335937c0 4.417969 3.582031 8 8 8h44.417969c3.910156-.003906 7.246093-2.832031 7.886718-6.6875l7.199219-43.199219c16.84375-5.046875 28.402344-20.515625 28.464844-38.097656 0-4.417969-3.582031-8-8-8zm-18.664062 80v-32h35l-5.335938 32zm40-48h-39.726563c1.304688-9.164062 9.144532-15.976562 18.398438-16h43.960937c-3.390625 9.589844-12.460937 16-22.632812 16zm0 0"/><path fill="url(#PSgrad_0)" d="m389.53125 67.871094-8 16c-1.125 2.253906-1.125 4.902344 0 7.152344l8 16 14.320312-7.152344-6.21875-12.421875 6.21875-12.425781zm0 0"/><path fill="url(#PSgrad_0)" d="m421.53125 67.871094-8 16c-1.125 2.253906-1.125 4.902344 0 7.152344l8 16 14.320312-7.152344-6.21875-12.421875 6.21875-12.425781zm0 0"/><path fill="url(#PSgrad_0)" d="m4.53125 222.648438 24.160156 12.375c-.703125 2.402343-1.496094 4.730468-2.105468 7.152343-.449219 1.910157-.679688 3.867188-.6875 5.832031.074218 11.386719 8.140624 21.152344 19.308593 23.378907 11.164063 2.226562 22.359375-3.699219 26.796875-14.1875l32.222656 16.503906c1.890626.972656 4.085938 1.148437 6.109376.5 2.019531-.652344 3.699218-2.082031 4.667968-3.972656l32.796875-64.085938c2.015625-3.933593.460938-8.753906-3.46875-10.769531l-23.441406-12c14.605469-10.566406 31.355469-17.789062 49.0625-21.160156l-16.796875 100.480468c-.386719 2.320313.269531 4.695313 1.789062 6.488282.144532.167968.363282.242187.511719.402344.195313 8.335937 1.320313 16.625 3.355469 24.710937-.390625 62.742187-47.84375 115.183594-110.234375 121.824219-12.15625 1.242187-21.375 11.523437-21.289063 23.742187-.007812 6.890625 2.898438 13.460938 8 18.089844 4.941407 4.433594 11.515626 6.585937 18.121094 5.925781 79.585938-8.789062 142.660156-71.195312 152.289063-150.6875l1.152343-7.648437c33.117188 5.339843 62.648438 23.902343 81.820313 51.429687 19.167969 27.53125 26.335937 61.664063 19.859375 94.578125-1.929688 9.324219 1.824219 18.910157 9.574219 24.441407s18.035156 5.96875 26.226562 1.113281c5.78125-3.398438 9.851563-9.085938 11.199219-15.65625 16.5-82.21875-28.878906-164.308594-107.28125-194.066407.277344-.507812.503906-1.042968.671875-1.597656l19.59375-88.144531c14.628906 13.210937 31.453125 23.769531 49.710937 31.199219 30.886719 12.773437 64.839844 16.222656 97.664063 9.914062 6.699219-1.265625 12.507813-5.394531 15.902344-11.304687 4.519531-7.597657 4.449219-17.074219-.183594-24.601563 2.667969-1.046875 4.574219-3.4375 4.992187-6.273437l7.257813-49.496094c.335937-2.296875-.34375-4.632813-1.863281-6.390625-1.523438-1.757812-3.734375-2.769531-6.058594-2.765625h-40.246094c-2.371094 0-4.621094 1.050781-6.140625 2.871094-1.519531 1.816406-2.152343 4.21875-1.730469 6.550781l8.328126 45.816406c-45.410157 4.328125-89.574219-16.398437-115.265626-54.089844-.117187-1.484374-.65625-2.910156-1.550781-4.101562-1.519531-1.894531-3.816406-2.992188-6.242187-2.992188h-88c-.589844.050782-1.171875.175782-1.734375.367188-40.671875 2.421875-79.160157 19.222656-108.585938 47.410156l-30.078125-15.425781c-3.933594-2.015625-8.753906-.460937-10.769531 3.472656l-32.800781 64.085938c-2.015625 3.914062-.496094 8.722656 3.410156 10.761719zm53.101562 27.199218c-1 3.871094-4.703124 6.410156-8.671874 5.945313-3.972657-.464844-6.988282-3.789063-7.070313-7.785157.007813-.695312.085937-1.386718.238281-2.0625.296875-1.191406.714844-2.328124 1.035156-3.503906l14.480469 7.40625zm4.945313-15.472656-14.289063-7.285156m141.554688 84c-8.644531 72.15625-65.84375 128.855468-138.074219 136.871094-2.09375.207031-4.179687-.488282-5.734375-1.90625-1.832031-1.695313-2.835937-4.109376-2.746094-6.605469.085938-3.902344 3.105469-7.105469 6.992188-7.425781 66.867188-7.089844 119.113281-60.949219 124.167969-128h12.839843c1.207032 0 2.40625.015624 3.601563.046874zm153.015625 116.46875c0 10.320312-1.015625 20.617187-3.039063 30.738281-.429687 2.121094-1.75 3.953125-3.625 5.03125-1.996093 1.195313-4.402343 1.484375-6.625.800781-3.972656-1.277344-6.296874-5.394531-5.335937-9.457031 1.746094-8.921875 2.625-17.988281 2.625-27.078125-.074219-77.054688-62.515625-139.503906-139.570313-139.59375h-13.511718c-1.214844-5.257812-1.988282-10.613281-2.3125-16h16c85.808594.191406 155.296875 69.753906 155.394531 155.558594zm83.824219-293.597656-4.90625 33.488281h-10.398438l-6.089844-33.496094zm-241.113282-5.714844c2.480469-.140625 4.960938-.222656 7.519532-.222656h74.511718c31.390626 46.117187 87.003907 69.410156 141.890626 59.425781 3.90625-.808594 7.8125 1.390625 9.152343 5.152343.78125 2.269532.535157 4.769532-.675781 6.847657-1.066406 1.878906-2.90625 3.191406-5.03125 3.589843-29.804688 5.722657-60.632812 2.566407-88.664062-9.070312-20.730469-8.414062-39.371094-21.265625-54.605469-37.648438-2.027344-2.175781-5.089844-3.046874-7.957031-2.265624-2.867188.78125-5.066407 3.085937-5.707032 5.984374l-21.328125 96h-64.136719l17-101.949218c.410157-2.460938-.347656-4.96875-2.050781-6.789063-1.703125-1.820312-4.15625-2.742187-6.636719-2.492187-27.011718 2.769531-52.617187 13.398437-73.648437 30.566406l-15.199219-7.773438c26.441406-23.625 60.15625-37.507812 95.566406-39.355468zm-151.574218 91.523437-15.050782-7.707031 25.53125-49.847656 18.832032 9.601562 44.230468 22.65625 22.398438 11.457032-25.527344 49.847656-27.503906-14.082032zm0 0"/></svg>