<svg height="470pt" viewBox="-39 0 470 470.87179" width="470pt" xmlns="http://www.w3.org/2000/svg">	<defs>
<linearGradient id="PSgrad_0" x1="98.769%" x2="0%" y1="15.643%" y2="0%">
  <stop offset="0%" stop-color="rgb(180,55,115)" stop-opacity="1" />
  <stop offset="100%" stop-color="rgb(209,73,74)" stop-opacity="1" />
</linearGradient>

</defs><path fill="url(#PSgrad_0)" d="m200.4375 96h44.445312c3.910157 0 7.246094-2.824219 7.890626-6.679688l7.496093-45c.589844-2.027343 1-4.105468 1.222657-6.207031 1.164062-.929687 2.042968-2.171875 2.535156-3.578125l8-24c.816406-2.441406.40625-5.125-1.097656-7.210937-1.503907-2.089844-3.921876-3.324219-6.492188-3.324219h-40v.273438c-18.011719 1.351562-31.953125 16.335937-32 34.398437v53.335937c.003906 4.414063 3.582031 7.992188 8 7.992188zm44.132812-54.816406-6.46875 38.816406h-29.664062v-40h36.414062v.144531c-.117187.339844-.210937.6875-.28125 1.039063zm-17.46875-25.183594h26.238282l-2.671875 8h-38.847657c3.480469-5.003906 9.183594-7.992188 15.28125-8zm0 0"/><path fill="url(#PSgrad_0)" d="m8.4375 352h104c4.417969 0 8-3.582031 8-8v-64c0-4.417969-3.582031-8-8-8h-104c-4.417969 0-8 3.582031-8 8v64c0 4.417969 3.582031 8 8 8zm8-64h88v48h-88zm0 0"/><path fill="url(#PSgrad_0)" d="m65.789062 264c12.027344-.042969 22.128907-9.066406 23.527344-21.015625 6.21875-44.492187 42.363282-78.78125 87.121094-82.648437v40.0625c-9.929688 4.992187-20.890625 7.59375-32 7.601562v16c10.953125-.015625 21.808594-2.085938 32-6.113281v70.113281c-.023438 21.78125-6.835938 43.015625-19.488281 60.742188-15.414063 21.695312-38.644531 36.558593-64.800781 41.457031-13.054688 2.429687-26.445313 2.402343-39.488282-.078125-9.300781-1.777344-18.785156 2.03125-24.273437 9.75-5.488281 7.714844-5.976563 17.925781-1.246094 26.128906 3.316406 5.714844 8.921875 9.734375 15.398437 11.046875 72.597657 14.507813 145.105469-25.335937 171.777344-94.398437 2.894532-7.570313 5.15625-15.363282 6.765625-23.304688 9.484375 1.59375 19.230469.023438 27.730469-4.472656 26.914062 6.511718 50.128906 23.480468 64.503906 47.144531 14.378906 23.667969 18.738282 52.089844 12.113282 78.976563-2.9375 11.875 3.527343 24.054687 15.007812 28.28125 6.375 2.457031 13.503906 2.066406 19.574219-1.074219 5.867187-3.015625 10.160156-8.394531 11.800781-14.785157 19.527344-77.230468-23.871094-156.445312-99.472656-181.558593l.097656-53.597657c23.070312 28.820313 56.371094 47.632813 92.964844 52.519532 13.152344 1.660156 25.160156-7.65625 26.820312-20.804688 1.664063-13.152344-7.652344-25.160156-20.804687-26.820312-41.464844-5.902344-74.421875-37.824219-81.644531-79.082032-2.4375-14.058593-12.453126-25.621093-26.027344-30.03125-3.980469-1.328124-8.152344-2.007812-12.351563-2.007812h-66.957031c-72.113281.15625-133.050781 53.503906-142.746094 124.960938-.945312 6.898437 1.179688 13.867187 5.816406 19.0625 4.636719 5.199218 11.316407 8.101562 18.28125 7.945312zm206.648438-122.496094c.746094 1.65625 1.285156 3.402344 1.597656 5.191406 8.417969 48.121094 46.839844 85.367188 95.199219 92.28125 4.1875.464844 7.320313 4.0625 7.203125 8.269532.011719 2.207031-.941406 4.304687-2.609375 5.746094-1.730469 1.515624-4.035156 2.203124-6.3125 1.886718-37.617187-5.050781-71.039063-26.570312-91.199219-58.726562l-3.855468-6.398438zm88 274.496094c.007812 11.292969-1.386719 22.539062-4.152344 33.488281-.515625 1.953125-1.839844 3.59375-3.640625 4.503907-2.246093 1.089843-4.855469 1.125-7.128906.097656-3.65625-1.453125-5.628906-5.429688-4.574219-9.21875 7.792969-31.605469 2.425782-65.023438-14.875-92.597656-17.300781-27.578126-45.050781-46.949219-76.902344-53.679688-.542968-.121094-1.09375-.179688-1.648437-.179688-1.507813.003907-2.980469.429688-4.253906 1.234376-7.632813 4.828124-17.128907 5.65625-25.480469 2.222656-2.277344-.9375-4.855469-.773438-6.996094.4375-2.140625 1.214844-3.601562 3.347656-3.964844 5.78125-9.570312 66.769531-66.933593 116.246094-134.382812 115.910156-8.992188 0-17.960938-.882812-26.777344-2.632812-1.988281-.410157-3.707031-1.660157-4.710937-3.421876-1.1875-2.136718-1.375-4.691406-.511719-6.976562 1.308594-3.804688 5.269531-6.015625 9.199219-5.136719 14.988281 2.859375 30.378906 2.894531 45.382812.105469 30.28125-5.667969 57.175781-22.878906 75.007813-48 14.558594-20.417969 22.390625-44.863281 22.410156-69.9375v-16h63.894531l-.0625 5.601562c-.046875 3.597657 2.316407 6.78125 5.773438 7.78125 58.105469 16.945313 98.140625 70.09375 98.394531 130.617188zm-104-287.441406v127.441406h-64v-46.335938c24.921875-16.21875 39.96875-43.929687 40-73.664062v-8h18.957031c1.695313 0 3.386719.191406 5.042969.558594zm-72-.558594h32v8c-.015625 20.441406-8.746094 39.90625-24 53.511719v-37.511719c0-4.417969-3.582031-8-8-8-55.925781.15625-103.226562 41.414062-110.976562 96.800781-.453126 4.195313-4.0625 7.332031-8.28125 7.199219-2.203126.011719-4.300782-.941406-5.742188-2.609375-1.511719-1.726563-2.199219-4.023437-1.890625-6.292969 8.605469-63.53125 62.78125-110.960937 126.890625-111.097656zm0 0"/></svg>