<svg height="470pt" viewBox="-51 0 470 470.89855" width="470pt" xmlns="http://www.w3.org/2000/svg">	<defs>
<linearGradient id="PSgrad_0" x1="98.769%" x2="0%" y1="15.643%" y2="0%">
  <stop offset="0%" stop-color="rgb(180,55,115)" stop-opacity="1" />
  <stop offset="100%" stop-color="rgb(209,73,74)" stop-opacity="1" />
</linearGradient>

</defs><path fill="url(#PSgrad_0)" d="m341.949219 270.742188c13.148437 1.664062 25.15625-7.652344 26.816406-20.800782 1.664063-13.152344-7.652344-25.160156-20.800781-26.820312-41.472656-5.902344-74.429688-37.828125-81.648438-79.089844-3.390625-18.542969-19.550781-32.007812-38.402344-32h-66.933593c-72.117188.15625-133.054688 53.5-142.753907 124.960938-1.652343 13.152343 7.667969 25.15625 20.820313 26.8125 13.152344 1.652343 25.15625-7.667969 26.8125-20.820313 6.214844-44.496094 42.359375-78.785156 87.121094-82.648437v127.664062c-.023438 21.78125-6.835938 43.015625-19.488281 60.742188-15.414063 21.695312-38.644532 36.558593-64.800782 41.457031-13.050781 2.429687-26.441406 2.402343-39.480468-.078125-9.304688-1.789063-18.792969 2.019531-24.285157 9.742187-5.488281 7.71875-5.96875 17.933594-1.226562 26.136719 3.3125 5.714844 8.910156 9.734375 15.382812 11.046875 72.574219 14.480469 145.042969-25.34375 171.730469-94.367187 2.890625-7.570313 5.152344-15.363282 6.765625-23.304688 9.484375 1.59375 19.226563.023438 27.730469-4.472656 26.914062 6.515625 50.128906 23.480468 64.503906 47.148437 14.378906 23.664063 18.734375 52.085938 12.109375 78.972657-2.21875 9.199218 1.128906 18.847656 8.566406 24.695312 7.4375 5.851562 17.601563 6.828125 26.019531 2.503906 5.863282-3.015625 10.15625-8.394531 11.792969-14.78125 19.566407-77.230468-23.816406-156.46875-99.425781-181.585937l.105469-53.597657c23.078125 28.808594 56.378906 47.605469 92.96875 52.484376zm-92.96875-129.230469c.75 1.652343 1.285156 3.394531 1.597656 5.183593 8.417969 48.132813 46.851563 85.378907 95.226563 92.28125 4.183593.464844 7.316406 4.0625 7.199218 8.269532.011719 2.207031-.941406 4.304687-2.609375 5.746094-1.730469 1.511718-4.03125 2.203124-6.3125 1.886718-37.617187-5.046875-71.035156-26.570312-91.199219-58.726562l-3.855468-6.398438zm-16-12.953125v127.441406h-64v-73.847656c23.066406-3.917969 39.957031-23.882813 40-47.28125v-6.871094h18.949219c1.699218 0 3.394531.191406 5.050781.558594zm-182.96875 112.273437c-.457031 4.195313-4.070313 7.332031-8.289063 7.199219-2.199218.011719-4.296875-.941406-5.734375-2.605469-1.507812-1.730469-2.195312-4.023437-1.898437-6.296875 8.597656-63.539062 62.773437-110.984375 126.890625-111.128906h32v6.871094c-.054688 14.546875-9.914063 27.226562-24 30.863281v-13.734375c0-4.417969-3.582031-8-8-8-55.933594.160156-103.234375 41.433594-110.96875 96.832031zm-32.519531 177.113281c-1.191407-2.136718-1.386719-4.6875-.535157-6.976562 1.300781-3.816406 5.273438-6.03125 9.207031-5.136719 4.894532.90625 9.84375 1.503907 14.816407 1.792969v16c-6.304688-.316406-12.582031-1.0625-18.785157-2.242188-1.988281-.417968-3.703124-1.671874-4.703124-3.4375zm39.488281 5.742188v-16.015625c4.882812-.289063 9.746093-.855469 14.566406-1.703125 30.28125-5.667969 57.175781-22.878906 75.007813-48 2.335937-3.296875 4.425781-6.703125 6.402343-10.167969l14.359375 7.199219c-22.902344 39.976562-64.355468 65.777344-110.335937 68.671875zm272.230469 30.304688c-2.242188 1.09375-4.855469 1.128906-7.128907.097656-3.65625-1.457032-5.628906-5.433594-4.574219-9.226563 1.125-4.609375 1.976563-9.28125 2.542969-13.992187h16.074219c-.664062 6.277344-1.765625 12.496094-3.296875 18.617187-.503906 1.949219-1.820313 3.589844-3.617187 4.503907zm7.71875-39.121094h-16c-.445313-35.308594-16.382813-68.636719-43.589844-91.152344l9.601562-12.796875c31.210938 25.554687 49.515625 63.613281 49.988282 103.949219zm-62.972657-113.304688-9.546875 12.707032c-11.878906-7.472657-24.988281-12.78125-38.71875-15.679688-.542968-.121094-1.09375-.179688-1.648437-.179688-1.503907.003907-2.980469.429688-4.253907 1.234376-7.632812 4.828124-17.128906 5.65625-25.480468 2.222656-2.277344-.9375-4.855469-.773438-6.996094.4375-2.140625 1.214844-3.601562 3.347656-3.964844 5.78125-1.417968 9.84375-3.917968 19.5-7.457031 28.796875-.480469 1.257812-1.0625 2.449219-1.597656 3.679687l-14.289063-7.140625c5.910156-14.425781 8.949219-29.867187 8.945313-45.457031v-16h63.894531l-.070312 5.597656c-.046876 3.601563 2.316406 6.785156 5.773437 7.785156 12.527344 3.664063 24.453125 9.125 35.410156 16.214844zm0 0"/><path fill="url(#PSgrad_0)" d="m176.980469 96h44.4375c3.914062.003906 7.253906-2.824219 7.898437-6.679688l7.496094-45c.605469-2.019531 1.039062-4.085937 1.296875-6.175781 1.136719-.957031 1.988281-2.207031 2.460937-3.617187 2.664063-8 1.320313-16.792969-3.613281-23.632813-4.929687-6.839843-12.847656-10.894531-21.28125-10.894531h-12.0625c-14.898437.0273438-28.117187 9.550781-32.859375 23.671875l-7.285156-.34375c-8.289062-.40625-16.484375 1.871094-23.378906 6.488281l-.671875.449219c-6.816407 4.53125-15.539063 5.074219-22.863281 1.414063l-7.152344 14.390624c12.46875 6.222657 27.304687 5.308594 38.914062-2.398437l.664063-.449219c4.039062-2.742187 8.867187-4.078125 13.742187-3.796875l6.257813.285157v48.367187c.042969 4.390625 3.613281 7.921875 8 7.921875zm26.664062-80h12c3.292969-.023438 6.394531 1.5625 8.304688 4.246094.8125 1.125 1.390625 2.402344 1.703125 3.753906h-37.359375c3.492187-5.007812 9.210937-7.996094 15.320312-8zm-18.664062 24h36.421875l-.039063.144531c-.109375.339844-.195312.6875-.246093 1.039063l-6.472657 38.816406h-29.664062zm0 0"/></svg>