<svg height="470pt" viewBox="-3 0 470 470.91464" width="470pt" xmlns="http://www.w3.org/2000/svg"><defs>
<linearGradient id="PSgrad_0" x1="98.769%" x2="0%" y1="15.643%" y2="0%">
  <stop offset="0%" stop-color="rgb(180,55,115)" stop-opacity="1" />
  <stop offset="100%" stop-color="rgb(209,73,74)" stop-opacity="1" />
</linearGradient>

</defs><path fill="url(#PSgrad_0)" d="m216.460938 88.027344c0 4.417968 3.582031 8 8 8h44.449218c3.910156-.003906 7.242188-2.828125 7.886719-6.679688l6.867187-41.320312h20.796876v-16h-18.933594c-1.292969-18.046875-16.308594-32.027344-34.402344-32.027344-18.089844 0-33.105469 13.980469-34.398438 32.027344h-8.265624v16h8zm45.671874-8h-29.671874v-32h35.007812zm-11.007812-64c9.257812.019531 17.09375 6.835937 18.402344 16h-36.800782c1.308594-9.164063 9.144532-15.980469 18.398438-16zm0 0"/><path fill="url(#PSgrad_0)" d="m6.773438 231.851562 59.28125 12.796876c.742187 4.199218 2.601562 8.121093 5.382812 11.351562 4.660156 5.230469 11.375 8.160156 18.378906 8.027344 6.070313 0 11.90625-2.371094 16.253906-6.609375l51.238282 21.960937c2.15625.921875 4.605468.855469 6.707031-.1875 2.097656-1.039062 3.636719-2.949218 4.207031-5.222656l8-32c1.023438-4.183594-1.453125-8.429688-5.601562-9.597656l-50.269532-14.402344c14.125-32.433594 44.867188-54.539062 80.109376-57.605469v127.664063c-.023438 21.78125-6.835938 43.011718-19.488282 60.742187-15.40625 21.695313-38.640625 36.554688-64.796875 41.449219-13.054687 2.433594-26.449219 2.414062-39.496093-.066406-9.304688-1.78125-18.792969 2.027344-24.277344 9.75-5.488282 7.71875-5.96875 17.929687-1.226563 26.132812 3.3125 5.714844 8.914063 9.734375 15.390625 11.039063 72.597656 14.507812 145.097656-25.339844 171.769532-94.398438 2.902343-7.566406 5.167968-15.363281 6.773437-23.304687 9.488281 1.578125 19.230469.007812 27.738281-4.472656 26.914063 6.515624 50.125 23.484374 64.5 47.152343s18.734375 52.085938 12.105469 78.976563c-2.230469 9.199218 1.109375 18.859375 8.550781 24.710937 7.445313 5.855469 17.617188 6.828125 26.035156 2.488281 5.867188-3.007812 10.164063-8.386718 11.800782-14.777343 19.554687-77.242188-23.859375-156.472657-99.480469-181.566407l.101563-53.601562c23.078124 28.816406 56.375 47.625 92.96875 52.511719 8.082031 1.074219 16.148437-2.046875 21.40625-8.273438 5.257812-6.230469 6.976562-14.707031 4.5625-22.492187h25.0625c4.417968 0 8-3.582032 8-8v-48h8c3.527343 0 6.636718-2.308594 7.660156-5.683594 1.023437-3.371094-.285156-7.019531-3.21875-8.972656l-48-32c-2.6875-1.792969-6.191406-1.792969-8.878906 0l-48 32c-2.933594 1.953125-4.242188 5.601562-3.21875 8.972656 1.023437 3.375 4.132812 5.683594 7.65625 5.683594h8v31.125c-28.765626-13.328125-49.183594-39.898438-54.65625-71.125-2.453126-14.054688-12.464844-25.605469-26.03125-30.027344-3.984376-1.316406-8.160157-1.984375-12.359376-1.972656h-66.953124c-59.59375.179687-112.957032 36.949218-134.351563 92.574218l-46.496094-19.925781c-3.894531-1.671875-8.417969-.015625-10.3125 3.773438l-16 32c-1.105469 2.210937-1.125 4.8125-.054687 7.042969 1.070312 2.226562 3.109375 3.835937 5.527344 4.359374zm401.6875-78.226562 21.601562 14.402344h-43.199219zm-24 30.402344h48v40h-33.140626c-1.265624-.394532-2.5625-.691406-3.875-.882813-3.703124-.527343-7.371093-1.277343-10.984374-2.246093zm-15.886719 48.558594c.265625 4.167968 3.710937 7.417968 7.886719 7.441406h19.859374c2.621094 1.457031 4.21875 4.253906 4.140626 7.253906.011718 2.203125-.941407 4.296875-2.605469 5.738281-1.734375 1.503907-4.035157 2.191407-6.3125 1.886719-28.960938-3.898438-55.695313-17.644531-75.710938-38.9375l11.320313-11.320312c11.554687 12.28125 25.707031 21.824218 41.421875 27.9375zm-72.113281-91.054688c.75 1.65625 1.289062 3.398438 1.601562 5.191406 2.820312 16.390625 9.292969 31.9375 18.945312 45.488282l-11.425781 11.382812c-1.792969-2.441406-3.640625-4.800781-5.273437-7.414062l-3.847656-6.402344zm-137.597657 104.09375-3.847656 15.375-41.65625-17.847656v-.109375c.472656-3.320313 1.117187-6.613281 1.933594-9.863281zm225.597657 170.402344c.007812 11.289062-1.390626 22.539062-4.160157 33.488281-.503906 1.953125-1.828125 3.59375-3.628906 4.503906-2.242187 1.085938-4.851563 1.121094-7.121094.09375-3.660156-1.453125-5.632812-5.429687-4.585937-9.222656 7.796875-31.605469 2.433594-65.019531-14.867188-92.59375-17.300781-27.574219-45.050781-46.945313-76.898437-53.679687-.542969-.117188-1.09375-.175782-1.648438-.175782-1.507812 0-2.984375.425782-4.257812 1.234375-7.632813 4.820313-17.125 5.648438-25.476563 2.222657-2.277344-.941407-4.859375-.78125-7 .433593-2.144531 1.214844-3.605468 3.347657-3.96875 5.78125-5.5 36.820313-25.851562 69.773438-56.308594 91.179688-30.457031 21.40625-68.355468 29.390625-104.859374 22.09375-1.988282-.40625-3.703126-1.652344-4.707032-3.417969-1.183594-2.132812-1.371094-4.683594-.511718-6.96875 1.28125-3.828125 5.265624-6.054688 9.203124-5.140625 14.988282 2.863281 30.378907 2.898437 45.382813.101563 30.277344-5.652344 57.171875-22.84375 75.015625-47.949219 14.558594-20.4375 22.386719-44.898438 22.398438-69.984375v-16h63.898437l-.066406 5.597656c-.046875 3.601562 2.316406 6.792969 5.777343 7.792969 58.105469 16.9375 98.140626 70.085937 98.390626 130.609375zm-132.375-288-6.34375 14.09375-7.75-14.09375zm-32.351563 0 19.71875 35.855468c1.40625 2.554688 4.09375 4.140626 7.007813 4.144532h.320312c3.03125-.121094 5.734375-1.949219 6.976562-4.714844l15.878907-35.285156h5.777343c1.699219-.003906 3.390626.183594 5.046876.558594v127.441406h-64v-104c0-4.417969-3.582032-8-8-8-15.882813.023437-31.574219 3.457031-46.015626 10.070312l-7.199218-14.328125c16.679687-7.71875 34.835937-11.726562 53.214844-11.742187zm-78.566406 19.285156 7.199219 14.402344c-27.753907 17.625-46.359376 46.554687-50.886719 79.117187-.457031 4.195313-4.0625 7.335938-8.28125 7.203125-2.203125.007813-4.300781-.941406-5.746094-2.601562-1.503906-1.734375-2.191406-4.027344-1.886719-6.304688 5.109375-37.988281 26.984375-71.683594 59.601563-91.816406zm-112.921875 55.042969 40.945312 17.542969c-.746094 2.832031-1.375 5.703124-1.945312 8.605468l-47.015625-10.125zm0 0"/></svg>